<?xml version="1.0" standalone="no"?>
<!DOCTYPE svg PUBLIC "-//W3C//DTD SVG 20010904//EN"
 "http://www.w3.org/TR/2001/REC-SVG-20010904/DTD/svg10.dtd">
<svg version="1.0" xmlns="http://www.w3.org/2000/svg"
 width="174.000000pt" height="176.000000pt" viewBox="0 0 174.000000 176.000000"
 preserveAspectRatio="xMidYMid meet">

<g transform="translate(0.000000,176.000000) scale(0.100000,-0.100000)"
fill="#000000" stroke="none">
<path d="M740 1753 c-83 -9 -212 -48 -305 -92 -219 -104 -362 -268 -415 -477
-87 -340 145 -687 542 -809 49 -15 88 -33 88 -40 0 -45 -71 -215 -115 -275
-19 -26 -35 -51 -35 -55 0 -15 86 7 142 37 66 35 162 126 233 220 l47 63 84
12 c343 50 603 247 700 533 15 43 19 83 18 180 0 109 -4 134 -26 192 -39 103
-86 174 -169 257 -191 192 -486 287 -789 254z m370 -44 c588 -149 794 -742
390 -1123 -82 -77 -178 -136 -286 -175 -88 -32 -214 -61 -267 -61 -28 0 -39
-7 -65 -44 -102 -142 -200 -232 -291 -267 -28 -10 -51 -16 -51 -13 0 3 8 18
19 32 49 70 131 288 113 302 -4 4 -36 14 -72 24 -210 56 -414 205 -499 366
-122 229 -104 460 54 668 115 152 339 278 555 311 101 15 301 6 400 -20z"/>
<path d="M500 1164 c0 -11 -6 -14 -20 -9 -21 7 -28 -9 -10 -20 6 -4 8 -15 5
-26 -7 -20 9 -26 21 -8 4 8 9 8 17 0 18 -18 29 -13 22 9 -4 13 -1 22 9 26 9 3
14 10 11 15 -3 4 -12 6 -20 2 -9 -3 -15 1 -15 11 0 9 -4 16 -10 16 -5 0 -10
-7 -10 -16z"/>
<path d="M646 1165 c-3 -8 -17 -17 -31 -21 -33 -8 -33 -34 0 -34 25 0 25 -1
25 -80 0 -73 2 -80 20 -80 19 0 20 7 20 115 0 92 -3 115 -14 115 -8 0 -16 -7
-20 -15z"/>
<path d="M775 1155 c-14 -13 -25 -31 -25 -40 0 -24 30 -17 40 10 12 31 54 34
70 5 14 -27 0 -52 -45 -80 -40 -25 -65 -56 -65 -82 0 -16 10 -18 75 -18 60 0
75 3 75 15 0 12 -13 15 -55 15 -30 0 -55 4 -55 10 0 5 18 21 39 34 70 45 90
97 51 136 -28 28 -75 26 -105 -5z"/>
<path d="M950 1160 c-22 -22 -27 -60 -7 -60 7 0 17 10 22 23 12 26 47 34 64
14 16 -20 4 -46 -25 -53 -28 -7 -32 -24 -6 -24 45 0 62 -59 23 -79 -21 -11
-61 4 -61 24 0 8 -9 15 -20 15 -17 0 -18 -3 -9 -27 13 -35 26 -43 72 -43 64 0
98 56 63 106 -10 13 -11 25 -5 35 39 62 -58 122 -111 69z"/>
<path d="M1156 1164 c-3 -9 -6 -24 -6 -35 0 -12 -7 -19 -20 -19 -11 0 -20 -4
-20 -10 0 -5 7 -10 15 -10 9 0 15 -9 15 -25 0 -18 -5 -25 -20 -25 -11 0 -20
-4 -20 -10 0 -5 7 -10 15 -10 10 0 15 -11 15 -35 0 -19 4 -35 9 -35 11 0 21
25 21 51 0 10 7 19 15 19 11 0 15 -11 15 -36 0 -41 23 -43 28 -3 2 13 11 30
20 38 12 10 14 15 5 18 -19 7 -16 40 5 53 12 8 13 13 5 16 -7 3 -13 21 -13 40
0 44 -17 44 -26 -1 -3 -20 -12 -35 -20 -35 -9 0 -14 12 -14 35 0 36 -13 47
-24 19z m44 -99 c0 -16 -6 -25 -15 -25 -9 0 -15 9 -15 25 0 16 6 25 15 25 9 0
15 -9 15 -25z"/>
</g>
</svg>
